<svg xmlns="http://www.w3.org/2000/svg" viewBox="0 0 1024 340"><defs><path id="s" fill="#000" d="M0 -1C0.16 -0.42 0.42 -0.16 1 0C0.42 0.16 0.16 0.42 0 1C-0.16 0.42 -0.42 0.16 -1 0C-0.42 -0.16 -0.16 -0.42 0 -1Z"/></defs><use href="#s" transform="translate(-20.5 337.2) scale(6.35)"/><use href="#s" transform="translate(-0.3 336.7) scale(7.96)"/><use href="#s" transform="translate(21.4 335.0) scale(7.98)"/><use href="#s" transform="translate(41.3 334.8) scale(7.28)"/><use href="#s" transform="translate(62.1 337.2) scale(7.24)"/><use href="#s" transform="translate(83.2 335.4) scale(7.35)"/><use href="#s" transform="translate(104.2 335.3) scale(6.79)"/><use href="#s" transform="translate(126.4 335.0) scale(7.04)"/><use href="#s" transform="translate(147.7 337.1) scale(7.82)"/><use href="#s" transform="translate(167.7 337.2) scale(7.19)"/><use href="#s" transform="translate(188.4 336.5) scale(6.58)"/><use href="#s" transform="translate(210.4 335.3) scale(8.23)"/><use href="#s" transform="translate(230.0 335.8) scale(7.01)"/><use href="#s" transform="translate(251.6 335.3) scale(7.47)"/><use href="#s" transform="translate(273.1 336.3) scale(7.10)"/><use href="#s" transform="translate(293.3 336.6) scale(7.07)"/><use href="#s" transform="translate(314.6 335.7) scale(7.74)"/><use href="#s" transform="translate(335.0 336.6) scale(7.08)"/><use href="#s" transform="translate(356.0 336.0) scale(7.83)"/><use href="#s" transform="translate(377.7 335.6) scale(8.18)"/><use href="#s" transform="translate(398.7 335.2) scale(6.64)"/><use href="#s" transform="translate(421.2 335.7) scale(7.19)"/><use href="#s" transform="translate(439.8 335.1) scale(7.82)"/><use href="#s" transform="translate(460.9 337.1) scale(6.82)"/><use href="#s" transform="translate(483.6 337.2) scale(7.81)"/><use href="#s" transform="translate(504.1 336.2) scale(8.18)"/><use href="#s" transform="translate(526.3 335.4) scale(6.26)"/><use href="#s" transform="translate(545.1 335.6) scale(7.71)"/><use href="#s" transform="translate(567.0 335.4) scale(6.57)"/><use href="#s" transform="translate(588.1 336.6) scale(6.62)"/><use href="#s" transform="translate(608.8 336.1) scale(8.09)"/><use href="#s" transform="translate(630.5 336.5) scale(7.02)"/><use href="#s" transform="translate(651.7 335.4) scale(8.22)"/><use href="#s" transform="translate(672.8 334.9) scale(7.51)"/><use href="#s" transform="translate(694.3 335.5) scale(7.88)"/><use href="#s" transform="translate(712.7 337.1) scale(7.26)"/><use href="#s" transform="translate(734.4 335.1) scale(7.19)"/><use href="#s" transform="translate(756.1 335.8) scale(8.16)"/><use href="#s" transform="translate(776.0 335.5) scale(7.59)"/><use href="#s" transform="translate(797.5 334.7) scale(6.86)"/><use href="#s" transform="translate(818.3 336.8) scale(8.06)"/><use href="#s" transform="translate(840.6 335.9) scale(6.47)"/><use href="#s" transform="translate(861.2 335.0) scale(8.22)"/><use href="#s" transform="translate(883.0 334.9) scale(7.43)"/><use href="#s" transform="translate(903.5 336.0) scale(7.47)"/><use href="#s" transform="translate(923.3 336.2) scale(8.05)"/><use href="#s" transform="translate(945.5 335.0) scale(6.59)"/><use href="#s" transform="translate(966.1 334.9) scale(7.39)"/><use href="#s" transform="translate(987.3 336.3) scale(7.73)"/><use href="#s" transform="translate(1007.3 335.0) scale(7.43)"/><use href="#s" transform="translate(1028.8 335.6) scale(6.45)"/><use href="#s" transform="translate(-10.9 318.7) scale(6.34)"/><use href="#s" transform="translate(11.3 318.6) scale(6.95)"/><use href="#s" transform="translate(32.0 317.2) scale(7.08)"/><use href="#s" transform="translate(52.7 318.4) scale(6.73)"/><use href="#s" transform="translate(74.5 316.9) scale(7.60)"/><use href="#s" transform="translate(94.5 317.8) scale(7.54)"/><use href="#s" transform="translate(116.6 317.2) scale(7.63)"/><use href="#s" transform="translate(137.7 318.7) scale(6.73)"/><use href="#s" transform="translate(157.2 316.6) scale(6.43)"/><use href="#s" transform="translate(179.4 318.8) scale(6.75)"/><use href="#s" transform="translate(200.7 317.9) scale(6.63)"/><use href="#s" transform="translate(220.5 316.6) scale(6.58)"/><use href="#s" transform="translate(242.0 316.9) scale(7.73)"/><use href="#s" transform="translate(262.1 318.0) scale(6.32)"/><use href="#s" transform="translate(284.4 318.9) scale(6.07)"/><use href="#s" transform="translate(303.7 318.8) scale(7.45)"/><use href="#s" transform="translate(324.9 316.8) scale(6.87)"/><use href="#s" transform="translate(346.4 319.0) scale(6.47)"/><use href="#s" transform="translate(366.4 317.9) scale(6.67)"/><use href="#s" transform="translate(387.9 318.7) scale(7.04)"/><use href="#s" transform="translate(408.3 318.7) scale(6.58)"/><use href="#s" transform="translate(430.8 317.5) scale(6.07)"/><use href="#s" transform="translate(451.6 316.8) scale(7.50)"/><use href="#s" transform="translate(471.6 316.8) scale(7.29)"/><use href="#s" transform="translate(493.5 317.4) scale(7.35)"/><use href="#s" transform="translate(514.9 317.8) scale(7.52)"/><use href="#s" transform="translate(536.7 318.2) scale(6.34)"/><use href="#s" transform="translate(556.5 318.4) scale(6.95)"/><use href="#s" transform="translate(577.2 317.5) scale(6.19)"/><use href="#s" transform="translate(599.1 317.4) scale(5.82)"/><use href="#s" transform="translate(619.5 318.7) scale(5.61)"/><use href="#s" transform="translate(640.0 317.3) scale(7.09)"/><use href="#s" transform="translate(662.4 316.7) scale(6.05)"/><use href="#s" transform="translate(681.8 316.6) scale(6.17)"/><use href="#s" transform="translate(702.8 317.2) scale(6.49)"/><use href="#s" transform="translate(723.7 317.1) scale(6.19)"/><use href="#s" transform="translate(746.6 317.2) scale(6.14)"/><use href="#s" transform="translate(767.4 319.0) scale(6.57)"/><use href="#s" transform="translate(786.5 317.2) scale(7.31)"/><use href="#s" transform="translate(809.7 316.5) scale(7.15)"/><use href="#s" transform="translate(829.1 316.8) scale(7.35)"/><use href="#s" transform="translate(851.4 316.5) scale(5.97)"/><use href="#s" transform="translate(872.6 318.4) scale(5.91)"/><use href="#s" transform="translate(891.4 316.6) scale(6.10)"/><use href="#s" transform="translate(912.7 316.7) scale(6.71)"/><use href="#s" transform="translate(934.4 317.2) scale(6.97)"/><use href="#s" transform="translate(956.7 317.2) scale(7.58)"/><use href="#s" transform="translate(977.2 318.7) scale(7.50)"/><use href="#s" transform="translate(997.1 317.4) scale(6.01)"/><use href="#s" transform="translate(1019.8 317.2) scale(7.63)"/><use href="#s" transform="translate(1038.6 317.5) scale(6.70)"/><use href="#s" transform="translate(-21.9 298.7) scale(6.69)"/><use href="#s" transform="translate(-0.3 299.9) scale(6.59)"/><use href="#s" transform="translate(20.7 299.2) scale(7.22)"/><use href="#s" transform="translate(42.3 299.3) scale(6.23)"/><use href="#s" transform="translate(64.3 299.6) scale(6.27)"/><use href="#s" transform="translate(83.3 299.9) scale(6.66)"/><use href="#s" transform="translate(106.2 298.7) scale(5.99)"/><use href="#s" transform="translate(125.7 298.3) scale(5.74)"/><use href="#s" transform="translate(147.4 298.2) scale(5.44)"/><use href="#s" transform="translate(167.4 298.9) scale(5.59)"/><use href="#s" transform="translate(190.1 300.6) scale(7.08)"/><use href="#s" transform="translate(209.7 300.2) scale(7.13)"/><use href="#s" transform="translate(229.9 298.2) scale(5.83)"/><use href="#s" transform="translate(250.9 300.4) scale(6.50)"/><use href="#s" transform="translate(273.8 300.2) scale(6.97)"/><use href="#s" transform="translate(293.7 298.8) scale(6.37)"/><use href="#s" transform="translate(316.0 300.3) scale(6.69)"/><use href="#s" transform="translate(337.0 298.4) scale(6.80)"/><use href="#s" transform="translate(358.0 300.5) scale(6.44)"/><use href="#s" transform="translate(377.4 300.4) scale(5.94)"/><use href="#s" transform="translate(398.7 299.7) scale(6.62)"/><use href="#s" transform="translate(421.1 300.5) scale(5.92)"/><use href="#s" transform="translate(441.7 300.6) scale(6.41)"/><use href="#s" transform="translate(461.0 300.5) scale(5.77)"/><use href="#s" transform="translate(483.8 298.4) scale(5.96)"/><use href="#s" transform="translate(504.4 299.3) scale(5.99)"/><use href="#s" transform="translate(523.9 299.9) scale(6.00)"/><use href="#s" transform="translate(546.3 299.6) scale(5.71)"/><use href="#s" transform="translate(568.0 299.2) scale(5.30)"/><use href="#s" transform="translate(588.4 300.5) scale(6.21)"/><use href="#s" transform="translate(609.6 298.2) scale(5.66)"/><use href="#s" transform="translate(629.5 298.5) scale(5.98)"/><use href="#s" transform="translate(651.5 300.4) scale(5.68)"/><use href="#s" transform="translate(671.0 299.2) scale(6.39)"/><use href="#s" transform="translate(693.3 299.7) scale(4.97)"/><use href="#s" transform="translate(713.5 299.8) scale(5.64)"/><use href="#s" transform="translate(735.7 299.5) scale(5.54)"/><use href="#s" transform="translate(754.8 300.0) scale(6.42)"/><use href="#s" transform="translate(776.3 298.5) scale(6.12)"/><use href="#s" transform="translate(797.9 298.7) scale(5.26)"/><use href="#s" transform="translate(818.8 299.6) scale(6.34)"/><use href="#s" transform="translate(841.0 298.3) scale(6.46)"/><use href="#s" transform="translate(861.3 299.9) scale(5.55)"/><use href="#s" transform="translate(881.2 298.6) scale(5.71)"/><use href="#s" transform="translate(904.2 299.2) scale(5.95)"/><use href="#s" transform="translate(925.0 299.5) scale(5.81)"/><use href="#s" transform="translate(944.9 299.3) scale(6.41)"/><use href="#s" transform="translate(966.0 298.2) scale(5.72)"/><use href="#s" transform="translate(986.6 299.8) scale(7.01)"/><use href="#s" transform="translate(1008.9 299.5) scale(6.61)"/><use href="#s" transform="translate(1030.2 298.8) scale(6.47)"/><use href="#s" transform="translate(-11.1 280.3) scale(6.24)"/><use href="#s" transform="translate(11.0 280.9) scale(5.83)"/><use href="#s" transform="translate(31.2 282.1) scale(6.14)"/><use href="#s" transform="translate(52.9 282.3) scale(5.50)"/><use href="#s" transform="translate(73.7 282.4) scale(5.48)"/><use href="#s" transform="translate(94.2 280.8) scale(5.28)"/><use href="#s" transform="translate(116.5 282.2) scale(5.93)"/><use href="#s" transform="translate(136.5 281.7) scale(6.00)"/><use href="#s" transform="translate(158.3 280.9) scale(5.06)"/><use href="#s" transform="translate(178.6 282.2) scale(5.57)"/><use href="#s" transform="translate(199.0 281.2) scale(5.64)"/><use href="#s" transform="translate(220.5 281.1) scale(5.17)"/><use href="#s" transform="translate(242.3 281.7) scale(5.41)"/><use href="#s" transform="translate(261.5 280.2) scale(5.51)"/><use href="#s" transform="translate(282.3 280.5) scale(5.81)"/><use href="#s" transform="translate(304.3 280.6) scale(6.56)"/><use href="#s" transform="translate(324.3 281.4) scale(6.57)"/><use href="#s" transform="translate(345.7 280.4) scale(5.59)"/><use href="#s" transform="translate(367.0 280.3) scale(5.31)"/><use href="#s" transform="translate(388.4 280.3) scale(6.39)"/><use href="#s" transform="translate(409.6 280.5) scale(5.20)"/><use href="#s" transform="translate(431.3 281.6) scale(6.46)"/><use href="#s" transform="translate(450.8 281.5) scale(6.06)"/><use href="#s" transform="translate(472.6 281.7) scale(5.32)"/><use href="#s" transform="translate(494.8 280.9) scale(5.03)"/><use href="#s" transform="translate(514.9 282.0) scale(5.83)"/><use href="#s" transform="translate(535.0 280.2) scale(5.35)"/><use href="#s" transform="translate(557.3 280.4) scale(4.41)"/><use href="#s" transform="translate(578.6 281.4) scale(5.62)"/><use href="#s" transform="translate(599.3 280.7) scale(5.00)"/><use href="#s" transform="translate(620.0 281.2) scale(4.96)"/><use href="#s" transform="translate(639.9 281.4) scale(4.76)"/><use href="#s" transform="translate(660.5 280.7) scale(4.52)"/><use href="#s" transform="translate(683.1 282.4) scale(5.04)"/><use href="#s" transform="translate(703.6 281.9) scale(4.58)"/><use href="#s" transform="translate(725.3 281.0) scale(4.81)"/><use href="#s" transform="translate(744.2 280.1) scale(5.37)"/><use href="#s" transform="translate(765.5 280.5) scale(5.30)"/><use href="#s" transform="translate(788.4 280.5) scale(4.88)"/><use href="#s" transform="translate(808.9 280.9) scale(5.10)"/><use href="#s" transform="translate(828.4 280.8) scale(5.37)"/><use href="#s" transform="translate(851.3 281.9) scale(6.23)"/><use href="#s" transform="translate(871.0 281.4) scale(4.89)"/><use href="#s" transform="translate(893.0 281.2) scale(5.74)"/><use href="#s" transform="translate(912.4 282.3) scale(5.25)"/><use href="#s" transform="translate(934.0 280.0) scale(6.17)"/><use href="#s" transform="translate(955.8 280.1) scale(5.25)"/><use href="#s" transform="translate(976.9 281.2) scale(5.69)"/><use href="#s" transform="translate(996.9 281.9) scale(6.48)"/><use href="#s" transform="translate(1018.5 280.4) scale(6.02)"/><use href="#s" transform="translate(1040.4 281.8) scale(6.17)"/><use href="#s" transform="translate(-21.9 263.4) scale(5.61)"/><use href="#s" transform="translate(-1.3 261.8) scale(6.06)"/><use href="#s" transform="translate(19.7 263.0) scale(4.88)"/><use href="#s" transform="translate(41.7 261.8) scale(5.64)"/><use href="#s" transform="translate(62.5 263.8) scale(5.83)"/><use href="#s" transform="translate(83.2 261.9) scale(5.54)"/><use href="#s" transform="translate(105.3 262.3) scale(5.49)"/><use href="#s" transform="translate(124.9 263.9) scale(5.72)"/><use href="#s" transform="translate(146.9 261.9) scale(4.71)"/><use href="#s" transform="translate(167.8 261.9) scale(4.99)"/><use href="#s" transform="translate(189.7 263.1) scale(4.71)"/><use href="#s" transform="translate(209.7 264.1) scale(5.93)"/><use href="#s" transform="translate(232.2 262.8) scale(5.35)"/><use href="#s" transform="translate(251.7 262.6) scale(5.73)"/><use href="#s" transform="translate(272.5 262.6) scale(6.13)"/><use href="#s" transform="translate(294.8 263.6) scale(5.00)"/><use href="#s" transform="translate(315.3 261.8) scale(5.87)"/><use href="#s" transform="translate(336.4 262.2) scale(4.94)"/><use href="#s" transform="translate(357.1 262.7) scale(4.87)"/><use href="#s" transform="translate(378.1 261.7) scale(5.62)"/><use href="#s" transform="translate(400.1 262.0) scale(4.72)"/><use href="#s" transform="translate(421.2 263.8) scale(5.81)"/><use href="#s" transform="translate(441.7 262.9) scale(4.63)"/><use href="#s" transform="translate(461.5 263.7) scale(4.57)"/><use href="#s" transform="translate(483.4 263.2) scale(5.40)"/><use href="#s" transform="translate(503.6 263.9) scale(4.71)"/><use href="#s" transform="translate(525.6 263.7) scale(4.32)"/><use href="#s" transform="translate(545.8 261.7) scale(4.36)"/><use href="#s" transform="translate(566.4 263.4) scale(3.73)"/><use href="#s" transform="translate(589.1 261.7) scale(3.70)"/><use href="#s" transform="translate(608.7 263.7) scale(3.80)"/><use href="#s" transform="translate(628.7 263.0) scale(3.96)"/><use href="#s" transform="translate(650.0 264.0) scale(4.05)"/><use href="#s" transform="translate(673.1 262.1) scale(3.67)"/><use href="#s" transform="translate(693.3 261.9) scale(4.48)"/><use href="#s" transform="translate(713.6 263.4) scale(4.08)"/><use href="#s" transform="translate(735.0 262.0) scale(3.76)"/><use href="#s" transform="translate(755.7 261.9) scale(3.90)"/><use href="#s" transform="translate(776.3 264.2) scale(4.13)"/><use href="#s" transform="translate(798.3 264.1) scale(5.42)"/><use href="#s" transform="translate(818.0 263.5) scale(4.31)"/><use href="#s" transform="translate(839.3 264.0) scale(5.48)"/><use href="#s" transform="translate(862.3 262.6) scale(5.35)"/><use href="#s" transform="translate(882.2 261.9) scale(5.13)"/><use href="#s" transform="translate(903.5 262.7) scale(4.48)"/><use href="#s" transform="translate(923.8 262.1) scale(4.52)"/><use href="#s" transform="translate(944.9 264.0) scale(4.98)"/><use href="#s" transform="translate(964.7 262.1) scale(5.03)"/><use href="#s" transform="translate(986.8 262.2) scale(5.50)"/><use href="#s" transform="translate(1008.3 263.2) scale(4.62)"/><use href="#s" transform="translate(1029.1 262.7) scale(4.59)"/><use href="#s" transform="translate(-10.9 245.0) scale(5.30)"/><use href="#s" transform="translate(11.6 243.8) scale(4.27)"/><use href="#s" transform="translate(31.9 243.5) scale(5.03)"/><use href="#s" transform="translate(52.6 245.9) scale(4.62)"/><use href="#s" transform="translate(72.9 244.8) scale(4.25)"/><use href="#s" transform="translate(95.3 244.1) scale(4.75)"/><use href="#s" transform="translate(114.3 243.7) scale(4.65)"/><use href="#s" transform="translate(136.1 244.3) scale(5.20)"/><use href="#s" transform="translate(156.3 244.0) scale(5.33)"/><use href="#s" transform="translate(178.9 244.6) scale(5.15)"/><use href="#s" transform="translate(198.4 244.0) scale(5.24)"/><use href="#s" transform="translate(220.0 244.7) scale(4.61)"/><use href="#s" transform="translate(240.6 245.9) scale(4.55)"/><use href="#s" transform="translate(262.3 243.8) scale(4.86)"/><use href="#s" transform="translate(283.4 244.1) scale(5.35)"/><use href="#s" transform="translate(304.0 243.5) scale(5.53)"/><use href="#s" transform="translate(325.5 244.6) scale(5.33)"/><use href="#s" transform="translate(345.3 244.7) scale(5.55)"/><use href="#s" transform="translate(368.0 244.8) scale(5.20)"/><use href="#s" transform="translate(387.9 244.3) scale(4.69)"/><use href="#s" transform="translate(410.5 244.3) scale(4.14)"/><use href="#s" transform="translate(429.5 245.4) scale(4.13)"/><use href="#s" transform="translate(450.7 245.9) scale(3.99)"/><use href="#s" transform="translate(472.0 244.4) scale(4.51)"/><use href="#s" transform="translate(493.7 243.6) scale(3.86)"/><use href="#s" transform="translate(513.6 244.9) scale(3.78)"/><use href="#s" transform="translate(536.3 244.4) scale(4.01)"/><use href="#s" transform="translate(556.6 245.8) scale(3.03)"/><use href="#s" transform="translate(576.3 245.5) scale(3.59)"/><use href="#s" transform="translate(598.2 244.2) scale(3.50)"/><use href="#s" transform="translate(618.7 245.7) scale(3.04)"/><use href="#s" transform="translate(641.8 244.8) scale(3.35)"/><use href="#s" transform="translate(661.2 245.3) scale(3.05)"/><use href="#s" transform="translate(683.2 245.1) scale(3.01)"/><use href="#s" transform="translate(702.7 244.9) scale(3.45)"/><use href="#s" transform="translate(725.5 244.5) scale(3.69)"/><use href="#s" transform="translate(745.4 245.5) scale(3.68)"/><use href="#s" transform="translate(767.3 244.9) scale(4.04)"/><use href="#s" transform="translate(787.4 243.6) scale(4.07)"/><use href="#s" transform="translate(808.4 245.4) scale(3.75)"/><use href="#s" transform="translate(828.3 245.8) scale(3.97)"/><use href="#s" transform="translate(851.0 245.4) scale(3.99)"/><use href="#s" transform="translate(872.2 243.5) scale(4.46)"/><use href="#s" transform="translate(891.9 245.8) scale(4.98)"/><use href="#s" transform="translate(912.3 243.8) scale(4.74)"/><use href="#s" transform="translate(933.7 243.4) scale(5.09)"/><use href="#s" transform="translate(955.8 243.4) scale(4.14)"/><use href="#s" transform="translate(976.5 245.1) scale(4.71)"/><use href="#s" transform="translate(996.6 244.6) scale(4.60)"/><use href="#s" transform="translate(1017.4 244.2) scale(4.16)"/><use href="#s" transform="translate(1039.9 245.6) scale(4.95)"/><use href="#s" transform="translate(-20.9 226.1) scale(4.56)"/><use href="#s" transform="translate(-0.3 226.0) scale(4.82)"/><use href="#s" transform="translate(21.2 226.0) scale(4.31)"/><use href="#s" transform="translate(41.7 226.2) scale(4.08)"/><use href="#s" transform="translate(63.5 225.4) scale(4.53)"/><use href="#s" transform="translate(83.1 227.4) scale(4.87)"/><use href="#s" transform="translate(106.1 226.7) scale(4.47)"/><use href="#s" transform="translate(126.1 227.1) scale(4.84)"/><use href="#s" transform="translate(147.0 226.5) scale(4.65)"/><use href="#s" transform="translate(168.5 225.3) scale(4.59)"/><use href="#s" transform="translate(189.4 225.7) scale(4.32)"/><use href="#s" transform="translate(210.4 225.7) scale(4.32)"/><use href="#s" transform="translate(231.6 226.1) scale(4.14)"/><use href="#s" transform="translate(252.2 226.0) scale(4.61)"/><use href="#s" transform="translate(272.4 225.1) scale(3.87)"/><use href="#s" transform="translate(295.2 225.4) scale(4.81)"/><use href="#s" transform="translate(314.6 227.1) scale(4.24)"/><use href="#s" transform="translate(337.0 226.0) scale(3.85)"/><use href="#s" transform="translate(357.3 227.5) scale(3.79)"/><use href="#s" transform="translate(377.2 226.0) scale(4.06)"/><use href="#s" transform="translate(398.8 225.7) scale(4.29)"/><use href="#s" transform="translate(420.5 226.4) scale(4.19)"/><use href="#s" transform="translate(441.4 225.2) scale(4.30)"/><use href="#s" transform="translate(460.9 226.8) scale(4.22)"/><use href="#s" transform="translate(483.6 225.9) scale(3.62)"/><use href="#s" transform="translate(504.9 226.9) scale(3.42)"/><use href="#s" transform="translate(525.3 227.3) scale(3.34)"/><use href="#s" transform="translate(546.3 227.4) scale(2.82)"/><use href="#s" transform="translate(565.8 226.8) scale(2.45)"/><use href="#s" transform="translate(589.0 226.0) scale(1.99)"/><use href="#s" transform="translate(607.8 226.8) scale(1.88)"/><use href="#s" transform="translate(629.0 226.0) scale(1.77)"/><use href="#s" transform="translate(651.0 226.2) scale(2.23)"/><use href="#s" transform="translate(672.7 227.0) scale(2.20)"/><use href="#s" transform="translate(694.2 225.3) scale(1.99)"/><use href="#s" transform="translate(714.0 227.0) scale(2.59)"/><use href="#s" transform="translate(735.9 226.7) scale(3.11)"/><use href="#s" transform="translate(756.7 225.7) scale(2.76)"/><use href="#s" transform="translate(776.3 225.2) scale(3.30)"/><use href="#s" transform="translate(797.0 225.2) scale(3.62)"/><use href="#s" transform="translate(819.6 227.3) scale(3.36)"/><use href="#s" transform="translate(839.6 226.5) scale(3.36)"/><use href="#s" transform="translate(861.6 225.3) scale(3.85)"/><use href="#s" transform="translate(881.4 226.9) scale(4.35)"/><use href="#s" transform="translate(902.9 226.2) scale(4.35)"/><use href="#s" transform="translate(924.0 226.5) scale(3.56)"/><use href="#s" transform="translate(945.9 227.5) scale(4.06)"/><use href="#s" transform="translate(965.7 225.8) scale(4.37)"/><use href="#s" transform="translate(986.0 226.8) scale(4.54)"/><use href="#s" transform="translate(1008.0 225.3) scale(3.62)"/><use href="#s" transform="translate(1029.1 226.4) scale(4.28)"/><use href="#s" transform="translate(-10.3 208.5) scale(3.79)"/><use href="#s" transform="translate(11.4 209.3) scale(3.45)"/><use href="#s" transform="translate(32.7 207.3) scale(3.86)"/><use href="#s" transform="translate(53.3 207.4) scale(4.21)"/><use href="#s" transform="translate(73.8 207.2) scale(3.77)"/><use href="#s" transform="translate(94.0 208.0) scale(3.65)"/><use href="#s" transform="translate(116.8 207.2) scale(4.11)"/><use href="#s" transform="translate(137.7 208.8) scale(3.59)"/><use href="#s" transform="translate(157.8 207.7) scale(4.17)"/><use href="#s" transform="translate(178.4 207.0) scale(3.69)"/><use href="#s" transform="translate(198.5 208.8) scale(3.79)"/><use href="#s" transform="translate(219.7 208.6) scale(4.03)"/><use href="#s" transform="translate(241.3 207.9) scale(3.98)"/><use href="#s" transform="translate(262.0 208.8) scale(3.86)"/><use href="#s" transform="translate(283.2 209.1) scale(4.32)"/><use href="#s" transform="translate(305.1 208.9) scale(4.41)"/><use href="#s" transform="translate(326.0 208.0) scale(3.57)"/><use href="#s" transform="translate(345.5 208.2) scale(4.15)"/><use href="#s" transform="translate(366.5 207.1) scale(4.01)"/><use href="#s" transform="translate(388.8 208.6) scale(3.30)"/><use href="#s" transform="translate(409.1 206.9) scale(3.63)"/><use href="#s" transform="translate(430.7 207.7) scale(3.61)"/><use href="#s" transform="translate(450.8 209.3) scale(3.72)"/><use href="#s" transform="translate(471.2 209.2) scale(3.33)"/><use href="#s" transform="translate(494.1 208.9) scale(2.67)"/><use href="#s" transform="translate(514.4 208.8) scale(2.77)"/><use href="#s" transform="translate(535.6 208.4) scale(2.43)"/><use href="#s" transform="translate(555.7 206.9) scale(1.86)"/><use href="#s" transform="translate(576.4 207.0) scale(1.47)"/><use href="#s" transform="translate(682.7 208.8) scale(1.25)"/><use href="#s" transform="translate(703.1 208.3) scale(1.30)"/><use href="#s" transform="translate(724.7 206.8) scale(1.52)"/><use href="#s" transform="translate(745.7 207.1) scale(2.31)"/><use href="#s" transform="translate(767.5 207.7) scale(2.44)"/><use href="#s" transform="translate(787.6 208.2) scale(2.62)"/><use href="#s" transform="translate(809.5 209.0) scale(2.60)"/><use href="#s" transform="translate(829.3 209.1) scale(2.64)"/><use href="#s" transform="translate(851.4 208.8) scale(3.17)"/><use href="#s" transform="translate(871.7 209.4) scale(3.58)"/><use href="#s" transform="translate(891.7 207.5) scale(3.63)"/><use href="#s" transform="translate(914.7 208.2) scale(3.78)"/><use href="#s" transform="translate(935.1 207.4) scale(3.75)"/><use href="#s" transform="translate(954.9 208.2) scale(3.76)"/><use href="#s" transform="translate(975.6 208.0) scale(3.21)"/><use href="#s" transform="translate(997.0 206.9) scale(3.84)"/><use href="#s" transform="translate(1018.0 209.3) scale(3.00)"/><use href="#s" transform="translate(1039.2 208.0) scale(3.23)"/><use href="#s" transform="translate(-19.9 189.8) scale(2.97)"/><use href="#s" transform="translate(-0.7 190.0) scale(2.92)"/><use href="#s" transform="translate(22.3 188.9) scale(3.78)"/><use href="#s" transform="translate(40.8 190.9) scale(3.08)"/><use href="#s" transform="translate(63.7 190.0) scale(3.02)"/><use href="#s" transform="translate(85.0 189.2) scale(3.50)"/><use href="#s" transform="translate(104.0 189.3) scale(2.82)"/><use href="#s" transform="translate(125.6 190.5) scale(3.15)"/><use href="#s" transform="translate(146.5 191.0) scale(3.36)"/><use href="#s" transform="translate(168.8 191.1) scale(3.03)"/><use href="#s" transform="translate(189.7 188.9) scale(3.51)"/><use href="#s" transform="translate(208.9 189.7) scale(2.95)"/><use href="#s" transform="translate(231.3 190.5) scale(2.87)"/><use href="#s" transform="translate(253.2 189.6) scale(3.70)"/><use href="#s" transform="translate(272.3 190.9) scale(3.52)"/><use href="#s" transform="translate(295.0 189.8) scale(3.81)"/><use href="#s" transform="translate(314.6 189.5) scale(3.83)"/><use href="#s" transform="translate(335.2 189.0) scale(3.18)"/><use href="#s" transform="translate(358.2 189.0) scale(3.02)"/><use href="#s" transform="translate(378.6 189.0) scale(3.61)"/><use href="#s" transform="translate(400.0 191.1) scale(3.23)"/><use href="#s" transform="translate(418.9 189.2) scale(2.70)"/><use href="#s" transform="translate(441.9 188.6) scale(2.74)"/><use href="#s" transform="translate(462.2 190.2) scale(2.73)"/><use href="#s" transform="translate(484.0 190.7) scale(1.99)"/><use href="#s" transform="translate(504.6 190.6) scale(1.92)"/><use href="#s" transform="translate(525.3 189.7) scale(1.37)"/><use href="#s" transform="translate(756.1 189.4) scale(1.23)"/><use href="#s" transform="translate(776.5 191.0) scale(1.49)"/><use href="#s" transform="translate(797.5 189.8) scale(1.99)"/><use href="#s" transform="translate(820.3 191.0) scale(2.24)"/><use href="#s" transform="translate(841.2 191.0) scale(2.48)"/><use href="#s" transform="translate(861.4 189.7) scale(2.30)"/><use href="#s" transform="translate(882.9 188.7) scale(2.58)"/><use href="#s" transform="translate(902.1 188.8) scale(2.79)"/><use href="#s" transform="translate(924.2 188.7) scale(2.77)"/><use href="#s" transform="translate(945.0 190.1) scale(3.12)"/><use href="#s" transform="translate(964.9 190.6) scale(2.66)"/><use href="#s" transform="translate(986.8 189.9) scale(2.59)"/><use href="#s" transform="translate(1008.8 190.0) scale(2.67)"/><use href="#s" transform="translate(1029.8 189.0) scale(3.17)"/><use href="#s" transform="translate(-10.1 171.6) scale(2.95)"/><use href="#s" transform="translate(10.1 171.3) scale(2.50)"/><use href="#s" transform="translate(31.7 172.4) scale(2.90)"/><use href="#s" transform="translate(52.3 172.3) scale(2.69)"/><use href="#s" transform="translate(73.8 172.2) scale(2.59)"/><use href="#s" transform="translate(94.8 172.3) scale(2.29)"/><use href="#s" transform="translate(116.2 171.9) scale(2.88)"/><use href="#s" transform="translate(137.5 170.3) scale(2.57)"/><use href="#s" transform="translate(156.4 171.6) scale(2.27)"/><use href="#s" transform="translate(179.7 171.6) scale(2.34)"/><use href="#s" transform="translate(198.4 170.6) scale(2.58)"/><use href="#s" transform="translate(220.2 171.8) scale(3.05)"/><use href="#s" transform="translate(241.0 171.1) scale(2.99)"/><use href="#s" transform="translate(263.7 171.9) scale(2.74)"/><use href="#s" transform="translate(284.2 170.5) scale(2.66)"/><use href="#s" transform="translate(303.4 171.8) scale(2.65)"/><use href="#s" transform="translate(325.6 172.4) scale(2.88)"/><use href="#s" transform="translate(346.5 170.8) scale(3.19)"/><use href="#s" transform="translate(368.3 170.6) scale(2.51)"/><use href="#s" transform="translate(388.1 170.3) scale(2.58)"/><use href="#s" transform="translate(409.5 172.8) scale(2.43)"/><use href="#s" transform="translate(431.2 172.3) scale(2.30)"/><use href="#s" transform="translate(452.5 172.2) scale(2.21)"/><use href="#s" transform="translate(471.3 171.2) scale(1.65)"/><use href="#s" transform="translate(494.2 171.0) scale(1.51)"/><use href="#s" transform="translate(807.5 171.8) scale(1.43)"/><use href="#s" transform="translate(830.7 171.2) scale(1.71)"/><use href="#s" transform="translate(850.9 172.2) scale(1.98)"/><use href="#s" transform="translate(870.9 172.8) scale(1.92)"/><use href="#s" transform="translate(893.3 171.6) scale(2.16)"/><use href="#s" transform="translate(913.2 172.5) scale(2.41)"/><use href="#s" transform="translate(934.6 171.8) scale(2.33)"/><use href="#s" transform="translate(955.8 172.0) scale(1.98)"/><use href="#s" transform="translate(976.8 172.7) scale(2.45)"/><use href="#s" transform="translate(998.6 171.9) scale(2.50)"/><use href="#s" transform="translate(1018.7 170.4) scale(1.95)"/><use href="#s" transform="translate(1039.1 172.6) scale(2.20)"/><use href="#s" transform="translate(-22.2 152.2) scale(1.94)"/><use href="#s" transform="translate(1.0 152.8) scale(2.40)"/><use href="#s" transform="translate(21.8 152.4) scale(1.94)"/><use href="#s" transform="translate(41.7 154.4) scale(2.06)"/><use href="#s" transform="translate(62.6 152.1) scale(2.33)"/><use href="#s" transform="translate(83.8 153.4) scale(2.32)"/><use href="#s" transform="translate(106.1 154.4) scale(1.97)"/><use href="#s" transform="translate(126.3 153.6) scale(1.99)"/><use href="#s" transform="translate(147.8 154.3) scale(2.24)"/><use href="#s" transform="translate(166.8 154.3) scale(2.18)"/><use href="#s" transform="translate(188.5 154.1) scale(1.81)"/><use href="#s" transform="translate(210.2 154.1) scale(2.00)"/><use href="#s" transform="translate(232.2 154.1) scale(2.31)"/><use href="#s" transform="translate(251.0 152.2) scale(2.39)"/><use href="#s" transform="translate(273.7 152.8) scale(2.28)"/><use href="#s" transform="translate(294.7 153.6) scale(2.43)"/><use href="#s" transform="translate(315.4 154.2) scale(2.16)"/><use href="#s" transform="translate(336.2 152.7) scale(2.14)"/><use href="#s" transform="translate(357.3 154.1) scale(2.53)"/><use href="#s" transform="translate(377.8 154.3) scale(2.09)"/><use href="#s" transform="translate(398.7 154.6) scale(1.84)"/><use href="#s" transform="translate(421.2 154.1) scale(1.79)"/><use href="#s" transform="translate(440.1 152.7) scale(1.53)"/><use href="#s" transform="translate(461.4 153.0) scale(1.28)"/><use href="#s" transform="translate(859.7 153.7) scale(1.29)"/><use href="#s" transform="translate(881.2 153.5) scale(1.21)"/><use href="#s" transform="translate(903.0 152.8) scale(1.45)"/><use href="#s" transform="translate(923.1 154.5) scale(1.44)"/><use href="#s" transform="translate(943.9 153.5) scale(1.47)"/><use href="#s" transform="translate(964.7 153.2) scale(1.64)"/><use href="#s" transform="translate(988.2 154.2) scale(1.51)"/><use href="#s" transform="translate(1009.3 153.1) scale(1.55)"/><use href="#s" transform="translate(1029.9 152.8) scale(1.54)"/><use href="#s" transform="translate(-10.9 134.1) scale(1.72)"/><use href="#s" transform="translate(10.6 133.9) scale(1.41)"/><use href="#s" transform="translate(31.4 135.9) scale(1.81)"/><use href="#s" transform="translate(52.6 135.5) scale(1.71)"/><use href="#s" transform="translate(72.3 134.8) scale(1.57)"/><use href="#s" transform="translate(94.6 135.5) scale(1.59)"/><use href="#s" transform="translate(114.3 136.2) scale(1.55)"/><use href="#s" transform="translate(137.6 136.2) scale(1.38)"/><use href="#s" transform="translate(156.4 134.3) scale(1.47)"/><use href="#s" transform="translate(179.5 136.3) scale(1.21)"/><use href="#s" transform="translate(200.2 135.6) scale(1.46)"/><use href="#s" transform="translate(221.6 136.3) scale(1.42)"/><use href="#s" transform="translate(242.2 136.0) scale(1.44)"/><use href="#s" transform="translate(263.4 134.0) scale(1.49)"/><use href="#s" transform="translate(284.3 135.7) scale(1.80)"/><use href="#s" transform="translate(304.6 134.8) scale(1.75)"/><use href="#s" transform="translate(325.3 134.0) scale(1.59)"/><use href="#s" transform="translate(345.6 135.6) scale(1.76)"/><use href="#s" transform="translate(368.4 133.9) scale(1.77)"/><use href="#s" transform="translate(388.0 134.7) scale(1.38)"/><use href="#s" transform="translate(410.0 135.9) scale(1.26)"/><use href="#s" transform="translate(336.7 117.3) scale(1.19)"/></svg>