<svg xmlns="http://www.w3.org/2000/svg" viewBox="0 0 1024 340"><defs><path id="s" fill="#000" d="M0 -1C0.24 -0.46 0.46 -0.24 1 0C0.46 0.24 0.24 0.46 0 1C-0.24 0.46 -0.46 0.24 -1 0C-0.46 -0.24 -0.24 -0.46 0 -1Z"/><filter id="soft" x="-20%" y="-20%" width="140%" height="140%"><feGaussianBlur stdDeviation="1.6"/></filter></defs><g filter="url(#soft)"><use href="#s" transform="translate(-24.5 335.3) scale(8.51)"/><use href="#s" transform="translate(-0.3 334.8) scale(10.87)"/><use href="#s" transform="translate(25.5 332.9) scale(10.90)"/><use href="#s" transform="translate(49.2 332.6) scale(9.88)"/><use href="#s" transform="translate(73.9 335.4) scale(9.82)"/><use href="#s" transform="translate(99.0 333.3) scale(9.98)"/><use href="#s" transform="translate(124.1 333.2) scale(9.15)"/><use href="#s" transform="translate(150.5 332.9) scale(9.52)"/><use href="#s" transform="translate(175.8 335.3) scale(10.66)"/><use href="#s" transform="translate(199.7 335.4) scale(9.75)"/><use href="#s" transform="translate(224.4 334.6) scale(8.85)"/><use href="#s" transform="translate(250.5 333.2) scale(11.27)"/><use href="#s" transform="translate(273.8 333.8) scale(9.49)"/><use href="#s" transform="translate(299.5 333.1) scale(10.15)"/><use href="#s" transform="translate(325.2 334.3) scale(9.62)"/><use href="#s" transform="translate(349.2 334.7) scale(9.57)"/><use href="#s" transform="translate(374.6 333.6) scale(10.54)"/><use href="#s" transform="translate(398.9 334.7) scale(9.57)"/><use href="#s" transform="translate(423.8 334.0) scale(10.66)"/><use href="#s" transform="translate(449.6 333.5) scale(11.16)"/><use href="#s" transform="translate(474.7 333.0) scale(8.90)"/><use href="#s" transform="translate(501.4 333.7) scale(9.70)"/><use href="#s" transform="translate(523.7 333.0) scale(10.60)"/><use href="#s" transform="translate(548.8 335.2) scale(9.14)"/><use href="#s" transform="translate(575.7 335.4) scale(10.57)"/><use href="#s" transform="translate(600.1 334.2) scale(11.10)"/><use href="#s" transform="translate(626.5 333.4) scale(8.31)"/><use href="#s" transform="translate(649.0 333.5) scale(10.44)"/><use href="#s" transform="translate(675.0 333.3) scale(8.79)"/><use href="#s" transform="translate(700.2 334.6) scale(8.88)"/><use href="#s" transform="translate(724.7 334.2) scale(11.06)"/><use href="#s" transform="translate(750.5 334.6) scale(9.51)"/><use href="#s" transform="translate(775.8 333.3) scale(11.30)"/><use href="#s" transform="translate(800.9 332.8) scale(10.25)"/><use href="#s" transform="translate(826.5 333.4) scale(10.82)"/><use href="#s" transform="translate(848.5 335.3) scale(9.89)"/><use href="#s" transform="translate(874.3 333.0) scale(9.78)"/><use href="#s" transform="translate(900.1 333.8) scale(11.21)"/><use href="#s" transform="translate(923.9 333.4) scale(10.36)"/><use href="#s" transform="translate(949.4 332.5) scale(9.28)"/><use href="#s" transform="translate(974.1 334.9) scale(11.04)"/><use href="#s" transform="translate(1000.7 333.8) scale(8.69)"/><use href="#s" transform="translate(1025.2 332.9) scale(11.25)"/><use href="#s" transform="translate(-11.4 311.0) scale(9.38)"/><use href="#s" transform="translate(13.1 312.3) scale(9.43)"/><use href="#s" transform="translate(36.6 312.4) scale(10.21)"/><use href="#s" transform="translate(63.1 311.1) scale(8.22)"/><use href="#s" transform="translate(87.7 311.0) scale(9.30)"/><use href="#s" transform="translate(112.9 312.5) scale(9.75)"/><use href="#s" transform="translate(136.7 311.1) scale(9.33)"/><use href="#s" transform="translate(162.2 311.8) scale(8.00)"/><use href="#s" transform="translate(187.0 313.4) scale(8.45)"/><use href="#s" transform="translate(213.4 313.3) scale(9.34)"/><use href="#s" transform="translate(238.1 311.7) scale(9.55)"/><use href="#s" transform="translate(262.8 313.1) scale(9.05)"/><use href="#s" transform="translate(288.6 311.3) scale(10.33)"/><use href="#s" transform="translate(312.5 312.4) scale(10.26)"/><use href="#s" transform="translate(338.8 311.7) scale(10.40)"/><use href="#s" transform="translate(363.9 313.4) scale(9.07)"/><use href="#s" transform="translate(387.1 310.9) scale(8.61)"/><use href="#s" transform="translate(413.6 313.5) scale(9.04)"/><use href="#s" transform="translate(438.9 312.5) scale(8.82)"/><use href="#s" transform="translate(462.5 310.9) scale(8.68)"/><use href="#s" transform="translate(488.1 311.3) scale(10.22)"/><use href="#s" transform="translate(512.0 312.6) scale(8.15)"/><use href="#s" transform="translate(538.6 313.6) scale(7.70)"/><use href="#s" transform="translate(561.6 313.5) scale(9.52)"/><use href="#s" transform="translate(586.8 311.2) scale(8.63)"/><use href="#s" transform="translate(612.4 313.7) scale(8.05)"/><use href="#s" transform="translate(636.3 312.5) scale(8.31)"/><use href="#s" transform="translate(661.8 313.4) scale(8.83)"/><use href="#s" transform="translate(686.1 313.4) scale(8.28)"/><use href="#s" transform="translate(712.9 312.0) scale(7.67)"/><use href="#s" transform="translate(737.6 311.2) scale(9.78)"/><use href="#s" transform="translate(761.5 311.2) scale(9.63)"/><use href="#s" transform="translate(787.6 311.9) scale(9.85)"/><use href="#s" transform="translate(812.9 312.3) scale(10.24)"/><use href="#s" transform="translate(838.9 312.8) scale(8.62)"/><use href="#s" transform="translate(862.5 313.0) scale(9.64)"/><use href="#s" transform="translate(887.2 311.9) scale(8.60)"/><use href="#s" transform="translate(913.2 311.9) scale(8.09)"/><use href="#s" transform="translate(937.5 313.4) scale(7.82)"/><use href="#s" transform="translate(962.0 311.7) scale(10.10)"/><use href="#s" transform="translate(988.5 311.1) scale(8.49)"/><use href="#s" transform="translate(1011.7 311.0) scale(8.65)"/><use href="#s" transform="translate(1036.7 311.6) scale(9.09)"/><use href="#s" transform="translate(-25.9 289.7) scale(7.96)"/><use href="#s" transform="translate(1.3 289.9) scale(7.85)"/><use href="#s" transform="translate(26.0 292.0) scale(8.39)"/><use href="#s" transform="translate(48.8 289.9) scale(9.34)"/><use href="#s" transform="translate(76.3 289.1) scale(9.06)"/><use href="#s" transform="translate(99.5 289.4) scale(9.28)"/><use href="#s" transform="translate(126.0 289.0) scale(7.37)"/><use href="#s" transform="translate(151.2 291.3) scale(7.27)"/><use href="#s" transform="translate(173.8 289.2) scale(7.51)"/><use href="#s" transform="translate(199.1 289.3) scale(8.33)"/><use href="#s" transform="translate(224.9 289.9) scale(8.70)"/><use href="#s" transform="translate(251.3 289.9) scale(9.55)"/><use href="#s" transform="translate(275.8 291.6) scale(9.45)"/><use href="#s" transform="translate(299.6 290.1) scale(7.45)"/><use href="#s" transform="translate(326.5 289.8) scale(9.64)"/><use href="#s" transform="translate(348.9 290.3) scale(8.36)"/><use href="#s" transform="translate(373.9 289.6) scale(8.92)"/><use href="#s" transform="translate(399.6 291.0) scale(8.72)"/><use href="#s" transform="translate(424.7 290.2) scale(9.53)"/><use href="#s" transform="translate(450.4 290.4) scale(8.04)"/><use href="#s" transform="translate(476.5 290.6) scale(7.99)"/><use href="#s" transform="translate(499.2 291.0) scale(8.39)"/><use href="#s" transform="translate(526.4 289.7) scale(7.33)"/><use href="#s" transform="translate(549.7 289.2) scale(6.85)"/><use href="#s" transform="translate(575.4 289.0) scale(6.33)"/><use href="#s" transform="translate(599.3 289.9) scale(6.41)"/><use href="#s" transform="translate(626.3 291.9) scale(8.17)"/><use href="#s" transform="translate(649.7 291.4) scale(8.22)"/><use href="#s" transform="translate(673.8 289.1) scale(6.65)"/><use href="#s" transform="translate(698.8 291.6) scale(7.58)"/><use href="#s" transform="translate(725.9 291.4) scale(8.32)"/><use href="#s" transform="translate(749.7 289.7) scale(7.69)"/><use href="#s" transform="translate(776.2 291.5) scale(8.24)"/><use href="#s" transform="translate(801.1 289.3) scale(8.52)"/><use href="#s" transform="translate(826.2 291.7) scale(8.15)"/><use href="#s" transform="translate(849.3 291.6) scale(7.57)"/><use href="#s" transform="translate(874.6 290.8) scale(8.60)"/><use href="#s" transform="translate(901.3 291.7) scale(7.70)"/><use href="#s" transform="translate(925.8 291.8) scale(8.49)"/><use href="#s" transform="translate(948.8 291.7) scale(7.66)"/><use href="#s" transform="translate(975.9 289.2) scale(8.04)"/><use href="#s" transform="translate(1000.5 290.4) scale(8.20)"/><use href="#s" transform="translate(1023.7 291.0) scale(8.35)"/><use href="#s" transform="translate(-12.2 268.9) scale(7.48)"/><use href="#s" transform="translate(13.6 268.5) scale(7.02)"/><use href="#s" transform="translate(38.0 270.0) scale(8.44)"/><use href="#s" transform="translate(63.2 267.3) scale(7.70)"/><use href="#s" transform="translate(86.9 267.6) scale(8.19)"/><use href="#s" transform="translate(113.1 269.9) scale(7.72)"/><use href="#s" transform="translate(136.3 268.4) scale(8.71)"/><use href="#s" transform="translate(162.8 269.0) scale(6.57)"/><use href="#s" transform="translate(187.0 269.1) scale(7.46)"/><use href="#s" transform="translate(213.3 268.8) scale(7.24)"/><use href="#s" transform="translate(236.1 269.3) scale(8.40)"/><use href="#s" transform="translate(261.7 267.6) scale(7.90)"/><use href="#s" transform="translate(287.4 267.9) scale(6.65)"/><use href="#s" transform="translate(312.2 268.9) scale(8.07)"/><use href="#s" transform="translate(338.7 267.4) scale(8.16)"/><use href="#s" transform="translate(362.8 269.2) scale(6.86)"/><use href="#s" transform="translate(386.5 267.8) scale(6.99)"/><use href="#s" transform="translate(413.9 268.4) scale(7.20)"/><use href="#s" transform="translate(438.6 268.8) scale(6.89)"/><use href="#s" transform="translate(462.4 268.5) scale(7.48)"/><use href="#s" transform="translate(487.5 267.3) scale(6.43)"/><use href="#s" transform="translate(512.1 269.1) scale(7.74)"/><use href="#s" transform="translate(538.5 268.8) scale(7.00)"/><use href="#s" transform="translate(563.9 267.9) scale(6.57)"/><use href="#s" transform="translate(586.8 267.7) scale(6.51)"/><use href="#s" transform="translate(613.1 268.4) scale(5.90)"/><use href="#s" transform="translate(637.2 269.8) scale(6.18)"/><use href="#s" transform="translate(662.9 270.0) scale(5.53)"/><use href="#s" transform="translate(687.7 270.2) scale(5.63)"/><use href="#s" transform="translate(712.1 268.4) scale(5.59)"/><use href="#s" transform="translate(738.6 269.9) scale(6.58)"/><use href="#s" transform="translate(762.5 269.3) scale(6.90)"/><use href="#s" transform="translate(788.4 268.4) scale(5.90)"/><use href="#s" transform="translate(812.6 269.9) scale(6.71)"/><use href="#s" transform="translate(836.9 268.8) scale(6.91)"/><use href="#s" transform="translate(862.5 268.6) scale(6.35)"/><use href="#s" transform="translate(888.4 269.3) scale(6.71)"/><use href="#s" transform="translate(911.3 267.6) scale(6.87)"/><use href="#s" transform="translate(936.1 267.9) scale(7.28)"/><use href="#s" transform="translate(962.3 268.1) scale(8.30)"/><use href="#s" transform="translate(986.1 268.9) scale(8.32)"/><use href="#s" transform="translate(1011.5 267.9) scale(7.00)"/><use href="#s" transform="translate(1037.0 267.7) scale(6.65)"/><use href="#s" transform="translate(-25.2 246.0) scale(7.60)"/><use href="#s" transform="translate(0.1 246.2) scale(6.15)"/><use href="#s" transform="translate(26.0 247.4) scale(7.86)"/><use href="#s" transform="translate(49.2 247.3) scale(7.42)"/><use href="#s" transform="translate(75.1 247.5) scale(6.53)"/><use href="#s" transform="translate(101.5 246.6) scale(6.26)"/><use href="#s" transform="translate(125.5 247.9) scale(7.50)"/><use href="#s" transform="translate(149.4 245.9) scale(7.02)"/><use href="#s" transform="translate(175.9 246.1) scale(5.86)"/><use href="#s" transform="translate(201.3 247.2) scale(7.85)"/><use href="#s" transform="translate(226.0 246.4) scale(7.12)"/><use href="#s" transform="translate(250.6 247.0) scale(7.21)"/><use href="#s" transform="translate(274.3 247.2) scale(6.96)"/><use href="#s" transform="translate(298.8 246.4) scale(6.57)"/><use href="#s" transform="translate(325.7 248.4) scale(7.29)"/><use href="#s" transform="translate(350.1 247.8) scale(6.42)"/><use href="#s" transform="translate(376.0 246.8) scale(6.56)"/><use href="#s" transform="translate(398.5 245.7) scale(7.10)"/><use href="#s" transform="translate(423.9 246.2) scale(6.70)"/><use href="#s" transform="translate(451.0 246.2) scale(5.82)"/><use href="#s" transform="translate(475.4 246.7) scale(5.77)"/><use href="#s" transform="translate(498.8 246.5) scale(5.74)"/><use href="#s" transform="translate(525.9 247.8) scale(6.28)"/><use href="#s" transform="translate(549.4 247.2) scale(4.49)"/><use href="#s" transform="translate(575.6 247.0) scale(4.97)"/><use href="#s" transform="translate(598.7 248.3) scale(4.24)"/><use href="#s" transform="translate(624.5 245.7) scale(4.87)"/><use href="#s" transform="translate(650.3 245.7) scale(4.07)"/><use href="#s" transform="translate(675.5 247.0) scale(4.57)"/><use href="#s" transform="translate(699.3 247.8) scale(5.51)"/><use href="#s" transform="translate(724.9 246.1) scale(5.40)"/><use href="#s" transform="translate(751.0 247.7) scale(5.86)"/><use href="#s" transform="translate(773.9 247.5) scale(5.95)"/><use href="#s" transform="translate(798.5 245.7) scale(6.73)"/><use href="#s" transform="translate(823.5 247.1) scale(5.51)"/><use href="#s" transform="translate(849.6 245.7) scale(6.62)"/><use href="#s" transform="translate(874.4 248.0) scale(7.01)"/><use href="#s" transform="translate(899.0 245.8) scale(6.74)"/><use href="#s" transform="translate(925.3 246.3) scale(6.74)"/><use href="#s" transform="translate(948.7 248.2) scale(7.07)"/><use href="#s" transform="translate(974.9 245.8) scale(5.74)"/><use href="#s" transform="translate(999.8 245.8) scale(6.12)"/><use href="#s" transform="translate(1025.8 247.3) scale(5.74)"/><use href="#s" transform="translate(-12.9 226.7) scale(6.84)"/><use href="#s" transform="translate(13.9 225.1) scale(6.10)"/><use href="#s" transform="translate(37.2 224.8) scale(6.52)"/><use href="#s" transform="translate(61.9 224.9) scale(6.94)"/><use href="#s" transform="translate(88.4 226.0) scale(5.52)"/><use href="#s" transform="translate(112.9 224.0) scale(6.52)"/><use href="#s" transform="translate(137.9 224.4) scale(5.40)"/><use href="#s" transform="translate(162.6 225.0) scale(5.34)"/><use href="#s" transform="translate(187.6 223.9) scale(6.31)"/><use href="#s" transform="translate(213.8 224.1) scale(5.31)"/><use href="#s" transform="translate(238.9 226.2) scale(6.81)"/><use href="#s" transform="translate(263.3 225.3) scale(5.48)"/><use href="#s" transform="translate(286.9 226.2) scale(5.57)"/><use href="#s" transform="translate(312.9 225.6) scale(6.90)"/><use href="#s" transform="translate(337.1 226.3) scale(6.15)"/><use href="#s" transform="translate(363.2 226.2) scale(5.78)"/><use href="#s" transform="translate(387.2 223.8) scale(5.99)"/><use href="#s" transform="translate(411.8 225.8) scale(5.14)"/><use href="#s" transform="translate(438.7 223.8) scale(5.12)"/><use href="#s" transform="translate(462.1 226.2) scale(5.16)"/><use href="#s" transform="translate(486.0 225.4) scale(5.14)"/><use href="#s" transform="translate(511.3 226.5) scale(4.83)"/><use href="#s" transform="translate(538.7 224.3) scale(3.85)"/><use href="#s" transform="translate(562.8 224.1) scale(4.13)"/><use href="#s" transform="translate(587.0 225.8) scale(3.20)"/><circle cx="612.5" cy="224.2" r="1.41" fill="#000"/><circle cx="637.2" cy="224.1" r="1.35" fill="#000"/><circle cx="661.6" cy="226.7" r="1.43" fill="#000"/><use href="#s" transform="translate(687.8 226.6) scale(3.67)"/><use href="#s" transform="translate(711.4 225.9) scale(3.11)"/><use href="#s" transform="translate(736.7 226.5) scale(4.41)"/><use href="#s" transform="translate(764.0 224.8) scale(4.65)"/><use href="#s" transform="translate(787.7 224.0) scale(4.75)"/><use href="#s" transform="translate(813.1 225.0) scale(4.32)"/><use href="#s" transform="translate(837.3 224.3) scale(4.55)"/><use href="#s" transform="translate(862.4 226.5) scale(5.20)"/><use href="#s" transform="translate(886.0 224.3) scale(5.37)"/><use href="#s" transform="translate(912.3 224.5) scale(5.99)"/><use href="#s" transform="translate(937.8 225.5) scale(4.99)"/><use href="#s" transform="translate(962.6 225.0) scale(4.95)"/><use href="#s" transform="translate(987.0 225.6) scale(6.16)"/><use href="#s" transform="translate(1013.8 224.2) scale(4.87)"/><use href="#s" transform="translate(1037.9 224.0) scale(5.86)"/><use href="#s" transform="translate(-24.9 204.9) scale(4.99)"/><use href="#s" transform="translate(-0.7 203.6) scale(4.60)"/><use href="#s" transform="translate(25.9 202.9) scale(5.21)"/><use href="#s" transform="translate(48.6 202.3) scale(5.07)"/><use href="#s" transform="translate(74.6 203.1) scale(5.68)"/><use href="#s" transform="translate(98.6 202.8) scale(5.78)"/><use href="#s" transform="translate(125.4 203.5) scale(5.52)"/><use href="#s" transform="translate(148.7 202.8) scale(5.59)"/><use href="#s" transform="translate(174.4 203.6) scale(4.86)"/><use href="#s" transform="translate(199.0 205.0) scale(4.80)"/><use href="#s" transform="translate(224.8 202.5) scale(5.18)"/><use href="#s" transform="translate(249.9 202.8) scale(5.79)"/><use href="#s" transform="translate(274.4 202.2) scale(6.05)"/><use href="#s" transform="translate(300.0 203.5) scale(5.86)"/><use href="#s" transform="translate(323.6 203.6) scale(6.15)"/><use href="#s" transform="translate(350.6 203.7) scale(5.73)"/><use href="#s" transform="translate(374.4 203.1) scale(5.09)"/><use href="#s" transform="translate(401.2 203.1) scale(4.39)"/><use href="#s" transform="translate(423.9 204.4) scale(4.29)"/><use href="#s" transform="translate(449.1 205.0) scale(3.99)"/><use href="#s" transform="translate(474.4 203.3) scale(4.33)"/><use href="#s" transform="translate(500.3 202.3) scale(3.39)"/><use href="#s" transform="translate(524.0 203.8) scale(2.97)"/><use href="#s" transform="translate(551.0 203.2) scale(2.72)"/><circle cx="575.1" cy="204.8" r="0.90" fill="#000"/><circle cx="598.6" cy="204.5" r="0.84" fill="#000"/><circle cx="624.6" cy="203.0" r="0.67" fill="#000"/><circle cx="649.1" cy="204.7" r="0.58" fill="#000"/><circle cx="676.5" cy="203.6" r="0.81" fill="#000"/><circle cx="699.7" cy="204.3" r="0.97" fill="#000"/><circle cx="725.8" cy="204.0" r="1.20" fill="#000"/><use href="#s" transform="translate(749.1 203.8) scale(2.96)"/><use href="#s" transform="translate(776.2 203.3) scale(3.53)"/><use href="#s" transform="translate(799.9 204.5) scale(3.72)"/><use href="#s" transform="translate(825.9 203.8) scale(4.25)"/><use href="#s" transform="translate(849.9 202.3) scale(4.35)"/><use href="#s" transform="translate(874.9 204.3) scale(3.98)"/><use href="#s" transform="translate(898.7 204.9) scale(4.21)"/><use href="#s" transform="translate(925.6 204.4) scale(4.19)"/><use href="#s" transform="translate(950.8 202.2) scale(4.68)"/><use href="#s" transform="translate(974.3 204.9) scale(5.21)"/><use href="#s" transform="translate(998.7 202.5) scale(4.90)"/><use href="#s" transform="translate(1024.0 202.0) scale(5.29)"/><use href="#s" transform="translate(-12.2 180.3) scale(3.96)"/><use href="#s" transform="translate(12.5 182.2) scale(4.56)"/><use href="#s" transform="translate(36.5 181.7) scale(4.41)"/><use href="#s" transform="translate(61.2 181.2) scale(3.90)"/><use href="#s" transform="translate(87.9 182.9) scale(4.63)"/><use href="#s" transform="translate(112.6 181.4) scale(4.44)"/><use href="#s" transform="translate(137.1 181.3) scale(4.68)"/><use href="#s" transform="translate(162.7 181.3) scale(4.15)"/><use href="#s" transform="translate(187.2 181.6) scale(3.97)"/><use href="#s" transform="translate(213.1 180.6) scale(4.52)"/><use href="#s" transform="translate(236.5 182.9) scale(5.01)"/><use href="#s" transform="translate(263.8 182.1) scale(4.68)"/><use href="#s" transform="translate(287.6 182.6) scale(5.18)"/><use href="#s" transform="translate(312.5 181.9) scale(5.01)"/><use href="#s" transform="translate(338.1 180.6) scale(4.90)"/><use href="#s" transform="translate(363.0 181.0) scale(4.50)"/><use href="#s" transform="translate(387.9 181.0) scale(4.32)"/><use href="#s" transform="translate(413.2 181.5) scale(3.86)"/><use href="#s" transform="translate(437.7 181.4) scale(3.96)"/><use href="#s" transform="translate(461.8 180.3) scale(2.87)"/><use href="#s" transform="translate(488.9 180.6) scale(3.02)"/><circle cx="512.0" cy="182.6" r="1.09" fill="#000"/><circle cx="538.7" cy="181.3" r="0.61" fill="#000"/><circle cx="761.8" cy="180.9" r="1.00" fill="#000"/><circle cx="787.6" cy="181.5" r="1.16" fill="#000"/><circle cx="812.6" cy="182.4" r="1.37" fill="#000"/><use href="#s" transform="translate(838.3 182.2) scale(3.05)"/><use href="#s" transform="translate(863.6 180.5) scale(2.88)"/><use href="#s" transform="translate(887.5 182.5) scale(3.67)"/><use href="#s" transform="translate(912.6 182.8) scale(3.41)"/><use href="#s" transform="translate(938.3 182.1) scale(3.89)"/><use href="#s" transform="translate(962.5 182.1) scale(4.09)"/><use href="#s" transform="translate(987.1 180.3) scale(4.13)"/><use href="#s" transform="translate(1011.0 182.9) scale(3.88)"/><use href="#s" transform="translate(1036.3 180.3) scale(3.60)"/><use href="#s" transform="translate(-26.3 158.9) scale(3.67)"/><use href="#s" transform="translate(1.1 160.0) scale(3.37)"/><use href="#s" transform="translate(25.5 160.8) scale(3.43)"/><use href="#s" transform="translate(48.6 161.4) scale(3.70)"/><use href="#s" transform="translate(75.3 160.0) scale(2.96)"/><use href="#s" transform="translate(101.4 161.1) scale(3.55)"/><use href="#s" transform="translate(124.2 160.8) scale(3.40)"/><use href="#s" transform="translate(150.3 159.1) scale(3.02)"/><use href="#s" transform="translate(175.6 158.8) scale(2.83)"/><use href="#s" transform="translate(199.3 160.7) scale(2.89)"/><use href="#s" transform="translate(224.0 159.6) scale(3.78)"/><use href="#s" transform="translate(250.1 160.6) scale(3.56)"/><use href="#s" transform="translate(276.2 159.4) scale(3.15)"/><use href="#s" transform="translate(301.1 159.8) scale(3.87)"/><use href="#s" transform="translate(323.9 160.0) scale(3.59)"/><use href="#s" transform="translate(350.1 161.0) scale(3.66)"/><use href="#s" transform="translate(376.0 159.7) scale(3.93)"/><use href="#s" transform="translate(401.4 158.8) scale(3.04)"/><use href="#s" transform="translate(423.9 160.0) scale(3.05)"/><circle cx="450.7" cy="160.1" r="1.17" fill="#000"/><circle cx="474.8" cy="160.3" r="1.00" fill="#000"/><circle cx="498.9" cy="161.0" r="0.57" fill="#000"/><circle cx="801.3" cy="159.1" r="0.57" fill="#000"/><circle cx="826.0" cy="159.1" r="0.98" fill="#000"/><circle cx="850.4" cy="159.0" r="1.10" fill="#000"/><circle cx="874.4" cy="159.8" r="1.22" fill="#000"/><use href="#s" transform="translate(901.5 158.9) scale(2.74)"/><circle cx="926.4" cy="160.8" r="1.37" fill="#000"/><use href="#s" transform="translate(950.3 159.6) scale(2.97)"/><use href="#s" transform="translate(974.9 158.7) scale(2.60)"/><use href="#s" transform="translate(998.8 160.8) scale(2.67)"/><use href="#s" transform="translate(1024.0 160.6) scale(2.86)"/><use href="#s" transform="translate(-12.8 138.0) scale(2.65)"/><circle cx="11.9" cy="139.0" r="1.41" fill="#000"/><use href="#s" transform="translate(37.2 139.4) scale(2.81)"/><use href="#s" transform="translate(63.2 139.1) scale(2.77)"/><circle cx="88.1" cy="138.1" r="1.17" fill="#000"/><circle cx="111.4" cy="138.4" r="1.34" fill="#000"/><circle cx="136.3" cy="137.1" r="1.28" fill="#000"/><circle cx="162.8" cy="138.8" r="1.07" fill="#000"/><circle cx="187.1" cy="136.8" r="1.25" fill="#000"/><circle cx="212.7" cy="137.8" r="1.35" fill="#000"/><use href="#s" transform="translate(236.7 139.6) scale(2.83)"/><use href="#s" transform="translate(261.0 139.5) scale(2.84)"/><circle cx="288.2" cy="139.1" r="1.40" fill="#000"/><use href="#s" transform="translate(312.4 139.0) scale(3.06)"/><use href="#s" transform="translate(337.7 138.6) scale(3.08)"/><use href="#s" transform="translate(361.5 136.8) scale(2.67)"/><circle cx="386.3" cy="137.0" r="1.30" fill="#000"/><circle cx="413.5" cy="138.5" r="1.05" fill="#000"/><circle cx="438.1" cy="138.5" r="0.93" fill="#000"/><circle cx="886.1" cy="138.5" r="0.64" fill="#000"/><circle cx="913.9" cy="138.5" r="0.62" fill="#000"/><circle cx="938.0" cy="139.4" r="0.69" fill="#000"/><circle cx="962.6" cy="138.3" r="0.76" fill="#000"/><circle cx="986.7" cy="139.4" r="0.82" fill="#000"/><circle cx="1011.2" cy="138.0" r="0.90" fill="#000"/><circle cx="1037.6" cy="139.3" r="0.95" fill="#000"/><circle cx="-23.9" cy="116.7" r="0.85" fill="#000"/><circle cx="1.0" cy="115.5" r="0.95" fill="#000"/><circle cx="26.3" cy="117.9" r="0.75" fill="#000"/><circle cx="51.1" cy="117.2" r="0.78" fill="#000"/><circle cx="76.0" cy="115.8" r="0.65" fill="#000"/><circle cx="99.3" cy="115.5" r="0.65" fill="#000"/><circle cx="126.3" cy="115.9" r="0.59" fill="#000"/><circle cx="201.4" cy="115.8" r="0.62" fill="#000"/><circle cx="224.9" cy="115.4" r="0.71" fill="#000"/><circle cx="249.9" cy="115.2" r="0.93" fill="#000"/><circle cx="275.2" cy="118.0" r="0.82" fill="#000"/><circle cx="299.0" cy="115.8" r="1.07" fill="#000"/><circle cx="326.2" cy="115.7" r="0.81" fill="#000"/><circle cx="350.2" cy="117.4" r="0.97" fill="#000"/><circle cx="374.2" cy="115.2" r="0.87" fill="#000"/></g></svg>