<svg xmlns="http://www.w3.org/2000/svg" viewBox="0 0 1024 340"><defs><path id="s" fill="#000" d="M0 -1C0.16 -0.42 0.42 -0.16 1 0C0.42 0.16 0.16 0.42 0 1C-0.16 0.42 -0.42 0.16 -1 0C-0.42 -0.16 -0.16 -0.42 0 -1Z"/></defs><use href="#s" transform="translate(-20.5 337.2) scale(8.68)"/><use href="#s" transform="translate(-0.3 336.7) scale(10.87)"/><use href="#s" transform="translate(21.4 335.0) scale(10.88)"/><use href="#s" transform="translate(41.3 334.8) scale(9.92)"/><use href="#s" transform="translate(62.1 337.2) scale(9.83)"/><use href="#s" transform="translate(83.2 335.4) scale(9.93)"/><use href="#s" transform="translate(104.2 335.3) scale(9.11)"/><use href="#s" transform="translate(126.4 335.0) scale(9.35)"/><use href="#s" transform="translate(147.7 337.1) scale(10.26)"/><use href="#s" transform="translate(167.7 337.2) scale(9.44)"/><use href="#s" transform="translate(188.4 336.5) scale(8.64)"/><use href="#s" transform="translate(210.4 335.3) scale(10.80)"/><use href="#s" transform="translate(230.0 335.8) scale(9.28)"/><use href="#s" transform="translate(251.6 335.3) scale(10.01)"/><use href="#s" transform="translate(273.1 336.3) scale(9.61)"/><use href="#s" transform="translate(293.3 336.6) scale(9.64)"/><use href="#s" transform="translate(314.6 335.7) scale(10.59)"/><use href="#s" transform="translate(335.0 336.6) scale(9.72)"/><use href="#s" transform="translate(356.0 336.0) scale(10.78)"/><use href="#s" transform="translate(377.7 335.6) scale(11.28)"/><use href="#s" transform="translate(398.7 335.2) scale(9.17)"/><use href="#s" transform="translate(421.2 335.7) scale(9.94)"/><use href="#s" transform="translate(439.8 335.1) scale(10.82)"/><use href="#s" transform="translate(460.9 337.1) scale(9.45)"/><use href="#s" transform="translate(483.6 337.2) scale(10.83)"/><use href="#s" transform="translate(504.1 336.2) scale(11.35)"/><use href="#s" transform="translate(526.3 335.4) scale(8.69)"/><use href="#s" transform="translate(545.1 335.6) scale(10.72)"/><use href="#s" transform="translate(567.0 335.4) scale(9.14)"/><use href="#s" transform="translate(588.1 336.6) scale(9.20)"/><use href="#s" transform="translate(608.8 336.1) scale(11.26)"/><use href="#s" transform="translate(630.5 336.5) scale(9.76)"/><use href="#s" transform="translate(651.7 335.4) scale(11.44)"/><use href="#s" transform="translate(672.8 334.9) scale(10.44)"/><use href="#s" transform="translate(694.3 335.5) scale(10.96)"/><use href="#s" transform="translate(712.7 337.1) scale(10.08)"/><use href="#s" transform="translate(734.4 335.1) scale(9.98)"/><use href="#s" transform="translate(756.1 335.8) scale(11.32)"/><use href="#s" transform="translate(776.0 335.5) scale(10.51)"/><use href="#s" transform="translate(797.5 334.7) scale(9.50)"/><use href="#s" transform="translate(818.3 336.8) scale(11.14)"/><use href="#s" transform="translate(840.6 335.9) scale(8.92)"/><use href="#s" transform="translate(861.2 335.0) scale(11.30)"/><use href="#s" transform="translate(883.0 334.9) scale(10.19)"/><use href="#s" transform="translate(903.5 336.0) scale(10.20)"/><use href="#s" transform="translate(923.3 336.2) scale(10.90)"/><use href="#s" transform="translate(945.5 335.0) scale(8.83)"/><use href="#s" transform="translate(966.1 334.9) scale(9.71)"/><use href="#s" transform="translate(987.3 336.3) scale(10.16)"/><use href="#s" transform="translate(1007.3 335.0) scale(9.76)"/><use href="#s" transform="translate(1028.8 335.6) scale(8.47)"/><use href="#s" transform="translate(-10.9 318.7) scale(8.27)"/><use href="#s" transform="translate(11.3 318.6) scale(9.01)"/><use href="#s" transform="translate(32.0 317.2) scale(9.09)"/><use href="#s" transform="translate(52.7 318.4) scale(8.49)"/><use href="#s" transform="translate(74.5 316.9) scale(9.32)"/><use href="#s" transform="translate(94.5 317.8) scale(8.87)"/><use href="#s" transform="translate(116.6 317.2) scale(8.42)"/><use href="#s" transform="translate(137.7 318.7) scale(6.77)"/><use href="#s" transform="translate(157.2 316.6) scale(6.12)"/><use href="#s" transform="translate(179.4 318.8) scale(6.42)"/><use href="#s" transform="translate(200.7 317.9) scale(6.30)"/><use href="#s" transform="translate(220.5 316.6) scale(6.31)"/><use href="#s" transform="translate(242.0 316.9) scale(8.36)"/><use href="#s" transform="translate(262.1 318.0) scale(7.48)"/><use href="#s" transform="translate(284.4 318.9) scale(7.61)"/><use href="#s" transform="translate(303.7 318.8) scale(9.70)"/><use href="#s" transform="translate(324.9 316.8) scale(9.17)"/><use href="#s" transform="translate(346.4 319.0) scale(8.80)"/><use href="#s" transform="translate(366.4 317.9) scale(9.19)"/><use href="#s" transform="translate(387.9 318.7) scale(9.78)"/><use href="#s" transform="translate(408.3 318.7) scale(9.21)"/><use href="#s" transform="translate(430.8 317.5) scale(8.55)"/><use href="#s" transform="translate(451.6 316.8) scale(10.62)"/><use href="#s" transform="translate(471.6 316.8) scale(10.38)"/><use href="#s" transform="translate(493.5 317.4) scale(10.51)"/><use href="#s" transform="translate(514.9 317.8) scale(10.80)"/><use href="#s" transform="translate(536.7 318.2) scale(9.13)"/><use href="#s" transform="translate(556.5 318.4) scale(10.05)"/><use href="#s" transform="translate(577.2 317.5) scale(8.99)"/><use href="#s" transform="translate(599.1 317.4) scale(8.46)"/><use href="#s" transform="translate(619.5 318.7) scale(8.18)"/><use href="#s" transform="translate(640.0 317.3) scale(10.34)"/><use href="#s" transform="translate(662.4 316.7) scale(8.81)"/><use href="#s" transform="translate(681.8 316.6) scale(8.98)"/><use href="#s" transform="translate(702.8 317.2) scale(9.41)"/><use href="#s" transform="translate(723.7 317.1) scale(8.93)"/><use href="#s" transform="translate(746.6 317.2) scale(8.82)"/><use href="#s" transform="translate(767.4 319.0) scale(9.38)"/><use href="#s" transform="translate(786.5 317.2) scale(10.36)"/><use href="#s" transform="translate(809.7 316.5) scale(10.05)"/><use href="#s" transform="translate(829.1 316.8) scale(10.23)"/><use href="#s" transform="translate(851.4 316.5) scale(8.20)"/><use href="#s" transform="translate(872.6 318.4) scale(7.97)"/><use href="#s" transform="translate(891.4 316.6) scale(8.01)"/><use href="#s" transform="translate(912.7 316.7) scale(8.48)"/><use href="#s" transform="translate(934.4 317.2) scale(8.25)"/><use href="#s" transform="translate(956.7 317.2) scale(7.99)"/><use href="#s" transform="translate(977.2 318.7) scale(7.18)"/><use href="#s" transform="translate(997.1 317.4) scale(5.76)"/><use href="#s" transform="translate(1019.8 317.2) scale(7.30)"/><use href="#s" transform="translate(1038.6 317.5) scale(6.41)"/><use href="#s" transform="translate(-21.9 298.7) scale(8.22)"/><use href="#s" transform="translate(-0.3 299.9) scale(8.03)"/><use href="#s" transform="translate(20.7 299.2) scale(8.64)"/><use href="#s" transform="translate(42.3 299.3) scale(7.23)"/><use href="#s" transform="translate(64.3 299.6) scale(6.91)"/><use href="#s" transform="translate(83.3 299.9) scale(6.76)"/><use href="#s" transform="translate(106.2 298.7) scale(5.27)"/><use href="#s" transform="translate(125.7 298.3) scale(3.91)"/><use href="#s" transform="translate(147.4 298.2) scale(2.23)"/><use href="#s" transform="translate(167.4 298.9) scale(2.29)"/><use href="#s" transform="translate(190.1 300.6) scale(2.89)"/><use href="#s" transform="translate(209.7 300.2) scale(2.91)"/><use href="#s" transform="translate(229.9 298.2) scale(3.49)"/><use href="#s" transform="translate(250.9 300.4) scale(5.63)"/><use href="#s" transform="translate(273.8 300.2) scale(7.34)"/><use href="#s" transform="translate(293.7 298.8) scale(7.49)"/><use href="#s" transform="translate(316.0 300.3) scale(8.42)"/><use href="#s" transform="translate(337.0 298.4) scale(8.95)"/><use href="#s" transform="translate(358.0 300.5) scale(8.73)"/><use href="#s" transform="translate(377.4 300.4) scale(8.24)"/><use href="#s" transform="translate(398.7 299.7) scale(9.33)"/><use href="#s" transform="translate(421.1 300.5) scale(8.46)"/><use href="#s" transform="translate(441.7 300.6) scale(9.27)"/><use href="#s" transform="translate(461.0 300.5) scale(8.42)"/><use href="#s" transform="translate(483.8 298.4) scale(8.79)"/><use href="#s" transform="translate(504.4 299.3) scale(8.92)"/><use href="#s" transform="translate(523.9 299.9) scale(9.01)"/><use href="#s" transform="translate(546.3 299.6) scale(8.64)"/><use href="#s" transform="translate(568.0 299.2) scale(8.09)"/><use href="#s" transform="translate(588.4 300.5) scale(9.53)"/><use href="#s" transform="translate(609.6 298.2) scale(8.73)"/><use href="#s" transform="translate(629.5 298.5) scale(9.25)"/><use href="#s" transform="translate(651.5 300.4) scale(8.78)"/><use href="#s" transform="translate(671.0 299.2) scale(9.85)"/><use href="#s" transform="translate(693.3 299.7) scale(7.61)"/><use href="#s" transform="translate(713.5 299.8) scale(8.57)"/><use href="#s" transform="translate(735.7 299.5) scale(8.34)"/><use href="#s" transform="translate(754.8 300.0) scale(9.55)"/><use href="#s" transform="translate(776.3 298.5) scale(8.97)"/><use href="#s" transform="translate(797.9 298.7) scale(7.60)"/><use href="#s" transform="translate(818.8 299.6) scale(8.98)"/><use href="#s" transform="translate(841.0 298.3) scale(8.94)"/><use href="#s" transform="translate(861.3 299.9) scale(7.45)"/><use href="#s" transform="translate(881.2 298.6) scale(7.32)"/><use href="#s" transform="translate(904.2 299.2) scale(7.12)"/><use href="#s" transform="translate(925.0 299.5) scale(6.17)"/><use href="#s" transform="translate(944.9 299.3) scale(5.36)"/><use href="#s" transform="translate(966.0 298.2) scale(2.37)"/><use href="#s" transform="translate(986.6 299.8) scale(2.90)"/><use href="#s" transform="translate(1008.9 299.5) scale(2.74)"/><use href="#s" transform="translate(1030.2 298.8) scale(2.68)"/><use href="#s" transform="translate(-11.1 280.3) scale(7.00)"/><use href="#s" transform="translate(11.0 280.9) scale(6.40)"/><use href="#s" transform="translate(31.2 282.1) scale(6.44)"/><use href="#s" transform="translate(52.9 282.3) scale(5.34)"/><use href="#s" transform="translate(73.7 282.4) scale(4.62)"/><use href="#s" transform="translate(94.2 280.8) scale(3.39)"/><use href="#s" transform="translate(116.5 282.2) scale(1.79)"/><use href="#s" transform="translate(241.5 281.7) scale(1.16)"/><use href="#s" transform="translate(263.3 280.9) scale(3.45)"/><use href="#s" transform="translate(283.6 282.2) scale(5.33)"/><use href="#s" transform="translate(304.0 281.2) scale(6.38)"/><use href="#s" transform="translate(325.5 281.1) scale(6.42)"/><use href="#s" transform="translate(347.3 281.7) scale(7.12)"/><use href="#s" transform="translate(366.5 280.2) scale(7.51)"/><use href="#s" transform="translate(387.3 280.5) scale(8.11)"/><use href="#s" transform="translate(409.3 280.6) scale(9.29)"/><use href="#s" transform="translate(429.3 281.4) scale(9.39)"/><use href="#s" transform="translate(450.7 280.4) scale(8.03)"/><use href="#s" transform="translate(472.0 280.3) scale(7.64)"/><use href="#s" transform="translate(493.4 280.3) scale(9.22)"/><use href="#s" transform="translate(514.6 280.5) scale(7.50)"/><use href="#s" transform="translate(536.3 281.6) scale(9.33)"/><use href="#s" transform="translate(555.8 281.5) scale(8.76)"/><use href="#s" transform="translate(577.6 281.7) scale(7.73)"/><use href="#s" transform="translate(599.8 280.9) scale(7.38)"/><use href="#s" transform="translate(619.9 282.0) scale(8.69)"/><use href="#s" transform="translate(640.0 280.2) scale(8.17)"/><use href="#s" transform="translate(662.3 280.4) scale(6.92)"/><use href="#s" transform="translate(683.6 281.4) scale(9.07)"/><use href="#s" transform="translate(704.3 280.7) scale(8.30)"/><use href="#s" transform="translate(725.0 281.2) scale(8.39)"/><use href="#s" transform="translate(744.9 281.4) scale(8.12)"/><use href="#s" transform="translate(765.5 280.7) scale(7.67)"/><use href="#s" transform="translate(788.1 282.4) scale(8.40)"/><use href="#s" transform="translate(808.6 281.9) scale(7.40)"/><use href="#s" transform="translate(830.3 281.0) scale(7.45)"/><use href="#s" transform="translate(849.2 280.1) scale(7.86)"/><use href="#s" transform="translate(870.5 280.5) scale(7.19)"/><use href="#s" transform="translate(893.4 280.5) scale(5.91)"/><use href="#s" transform="translate(913.9 280.9) scale(5.12)"/><use href="#s" transform="translate(933.4 280.8) scale(3.60)"/><use href="#s" transform="translate(-20.2 263.6) scale(5.97)"/><use href="#s" transform="translate(-0.5 263.1) scale(4.54)"/><use href="#s" transform="translate(21.5 262.9) scale(4.98)"/><use href="#s" transform="translate(40.9 264.0) scale(4.04)"/><use href="#s" transform="translate(62.5 261.8) scale(3.76)"/><use href="#s" transform="translate(84.3 261.8) scale(1.76)"/><use href="#s" transform="translate(273.4 262.9) scale(2.69)"/><use href="#s" transform="translate(293.4 263.7) scale(5.29)"/><use href="#s" transform="translate(315.0 262.1) scale(6.17)"/><use href="#s" transform="translate(336.9 263.5) scale(7.13)"/><use href="#s" transform="translate(356.1 263.4) scale(7.43)"/><use href="#s" transform="translate(376.7 261.8) scale(8.39)"/><use href="#s" transform="translate(397.7 263.0) scale(6.96)"/><use href="#s" transform="translate(419.7 261.8) scale(8.20)"/><use href="#s" transform="translate(440.5 263.8) scale(8.58)"/><use href="#s" transform="translate(461.2 261.9) scale(8.20)"/><use href="#s" transform="translate(483.3 262.3) scale(8.12)"/><use href="#s" transform="translate(502.9 263.9) scale(8.39)"/><use href="#s" transform="translate(524.9 261.9) scale(6.83)"/><use href="#s" transform="translate(545.8 261.9) scale(7.11)"/><use href="#s" transform="translate(567.7 263.1) scale(6.58)"/><use href="#s" transform="translate(587.7 264.1) scale(8.12)"/><use href="#s" transform="translate(610.2 262.8) scale(7.20)"/><use href="#s" transform="translate(629.7 262.6) scale(7.63)"/><use href="#s" transform="translate(650.5 262.6) scale(8.13)"/><use href="#s" transform="translate(672.8 263.6) scale(6.65)"/><use href="#s" transform="translate(693.3 261.8) scale(7.87)"/><use href="#s" transform="translate(714.4 262.2) scale(6.69)"/><use href="#s" transform="translate(735.1 262.7) scale(6.66)"/><use href="#s" transform="translate(756.1 261.7) scale(7.77)"/><use href="#s" transform="translate(778.1 262.0) scale(6.56)"/><use href="#s" transform="translate(799.2 263.8) scale(8.09)"/><use href="#s" transform="translate(819.7 262.9) scale(6.41)"/><use href="#s" transform="translate(839.5 263.7) scale(6.21)"/><use href="#s" transform="translate(861.4 263.2) scale(7.05)"/><use href="#s" transform="translate(881.6 263.9) scale(5.64)"/><use href="#s" transform="translate(903.6 263.7) scale(4.29)"/><use href="#s" transform="translate(923.8 261.7) scale(2.45)"/><use href="#s" transform="translate(-11.1 245.1) scale(3.44)"/><use href="#s" transform="translate(11.6 243.4) scale(3.27)"/><use href="#s" transform="translate(31.2 245.5) scale(2.87)"/><use href="#s" transform="translate(51.2 244.8) scale(1.94)"/><use href="#s" transform="translate(282.5 245.7) scale(1.70)"/><use href="#s" transform="translate(305.6 243.8) scale(3.63)"/><use href="#s" transform="translate(325.8 243.7) scale(5.74)"/><use href="#s" transform="translate(346.1 245.1) scale(5.86)"/><use href="#s" transform="translate(367.5 243.8) scale(5.67)"/><use href="#s" transform="translate(388.2 243.6) scale(5.99)"/><use href="#s" transform="translate(408.8 245.9) scale(6.35)"/><use href="#s" transform="translate(430.8 245.8) scale(8.27)"/><use href="#s" transform="translate(450.5 245.2) scale(6.47)"/><use href="#s" transform="translate(471.8 245.7) scale(8.08)"/><use href="#s" transform="translate(494.8 244.3) scale(7.70)"/><use href="#s" transform="translate(514.7 243.6) scale(7.19)"/><use href="#s" transform="translate(536.0 244.5) scale(6.11)"/><use href="#s" transform="translate(556.3 243.8) scale(6.00)"/><use href="#s" transform="translate(577.4 245.8) scale(6.42)"/><use href="#s" transform="translate(597.2 243.8) scale(6.34)"/><use href="#s" transform="translate(619.3 244.0) scale(6.84)"/><use href="#s" transform="translate(640.8 244.9) scale(5.71)"/><use href="#s" transform="translate(661.6 244.5) scale(5.68)"/><use href="#s" transform="translate(682.1 245.0) scale(7.01)"/><use href="#s" transform="translate(704.6 243.8) scale(5.72)"/><use href="#s" transform="translate(724.9 243.5) scale(6.84)"/><use href="#s" transform="translate(745.6 245.9) scale(6.35)"/><use href="#s" transform="translate(765.9 244.8) scale(5.87)"/><use href="#s" transform="translate(788.3 244.1) scale(6.52)"/><use href="#s" transform="translate(807.3 243.7) scale(6.24)"/><use href="#s" transform="translate(829.1 244.3) scale(6.68)"/><use href="#s" transform="translate(849.3 244.0) scale(6.31)"/><use href="#s" transform="translate(871.9 244.6) scale(5.28)"/><use href="#s" transform="translate(891.4 244.0) scale(4.02)"/><use href="#s" transform="translate(913.0 244.7) scale(1.31)"/><use href="#s" transform="translate(-21.9 227.7) scale(2.17)"/><use href="#s" transform="translate(-0.2 225.5) scale(2.02)"/><use href="#s" transform="translate(20.9 225.8) scale(1.46)"/><use href="#s" transform="translate(313.8 227.1) scale(3.08)"/><use href="#s" transform="translate(336.0 227.6) scale(4.61)"/><use href="#s" transform="translate(357.0 227.0) scale(4.76)"/><use href="#s" transform="translate(378.2 226.1) scale(6.35)"/><use href="#s" transform="translate(398.7 225.2) scale(5.97)"/><use href="#s" transform="translate(419.6 225.4) scale(7.28)"/><use href="#s" transform="translate(441.8 225.3) scale(5.98)"/><use href="#s" transform="translate(463.3 226.7) scale(6.15)"/><use href="#s" transform="translate(482.8 225.7) scale(6.28)"/><use href="#s" transform="translate(503.0 226.0) scale(6.70)"/><use href="#s" transform="translate(525.2 227.1) scale(5.77)"/><use href="#s" transform="translate(545.7 225.1) scale(6.74)"/><use href="#s" transform="translate(568.1 227.2) scale(6.02)"/><use href="#s" transform="translate(588.9 227.5) scale(5.01)"/><use href="#s" transform="translate(608.6 226.5) scale(5.43)"/><use href="#s" transform="translate(631.1 227.6) scale(5.09)"/><use href="#s" transform="translate(651.1 226.5) scale(6.31)"/><use href="#s" transform="translate(672.7 226.1) scale(5.42)"/><use href="#s" transform="translate(693.4 226.9) scale(6.15)"/><use href="#s" transform="translate(714.2 227.0) scale(5.31)"/><use href="#s" transform="translate(734.8 226.4) scale(6.55)"/><use href="#s" transform="translate(756.8 226.8) scale(5.88)"/><use href="#s" transform="translate(777.2 226.5) scale(6.40)"/><use href="#s" transform="translate(797.0 225.4) scale(5.66)"/><use href="#s" transform="translate(819.7 225.7) scale(5.41)"/><use href="#s" transform="translate(841.2 225.5) scale(4.37)"/><use href="#s" transform="translate(861.8 226.4) scale(4.45)"/><use href="#s" transform="translate(880.8 227.3) scale(3.17)"/><use href="#s" transform="translate(325.9 206.9) scale(3.04)"/><use href="#s" transform="translate(347.5 207.3) scale(3.69)"/><use href="#s" transform="translate(366.6 208.4) scale(4.23)"/><use href="#s" transform="translate(388.8 208.1) scale(4.71)"/><use href="#s" transform="translate(409.5 207.2) scale(6.07)"/><use href="#s" transform="translate(429.6 207.0) scale(5.98)"/><use href="#s" transform="translate(452.2 208.5) scale(5.75)"/><use href="#s" transform="translate(472.9 208.2) scale(6.70)"/><use href="#s" transform="translate(494.5 207.8) scale(5.79)"/><use href="#s" transform="translate(514.4 208.3) scale(5.53)"/><use href="#s" transform="translate(534.9 207.8) scale(5.32)"/><use href="#s" transform="translate(556.9 208.6) scale(5.22)"/><use href="#s" transform="translate(578.7 207.2) scale(4.53)"/><use href="#s" transform="translate(598.9 209.2) scale(5.38)"/><use href="#s" transform="translate(620.7 208.2) scale(4.86)"/><use href="#s" transform="translate(641.4 208.1) scale(5.02)"/><use href="#s" transform="translate(662.2 208.6) scale(4.76)"/><use href="#s" transform="translate(682.6 208.5) scale(4.25)"/><use href="#s" transform="translate(703.5 208.5) scale(4.56)"/><use href="#s" transform="translate(724.1 208.7) scale(4.68)"/><use href="#s" transform="translate(746.0 208.3) scale(4.99)"/><use href="#s" transform="translate(765.4 207.5) scale(4.93)"/><use href="#s" transform="translate(788.3 209.3) scale(4.33)"/><use href="#s" transform="translate(808.1 207.7) scale(4.26)"/><use href="#s" transform="translate(828.3 209.1) scale(4.62)"/><use href="#s" transform="translate(849.2 208.4) scale(3.39)"/><use href="#s" transform="translate(870.9 207.4) scale(2.48)"/><use href="#s" transform="translate(336.1 189.6) scale(2.08)"/><use href="#s" transform="translate(357.1 190.4) scale(3.31)"/><use href="#s" transform="translate(378.7 190.2) scale(4.39)"/><use href="#s" transform="translate(399.9 188.7) scale(4.31)"/><use href="#s" transform="translate(420.0 190.5) scale(5.46)"/><use href="#s" transform="translate(441.1 190.8) scale(5.11)"/><use href="#s" transform="translate(462.7 190.1) scale(5.72)"/><use href="#s" transform="translate(483.0 190.1) scale(5.87)"/><use href="#s" transform="translate(503.7 188.6) scale(5.75)"/><use href="#s" transform="translate(523.7 190.8) scale(5.16)"/><use href="#s" transform="translate(545.0 188.6) scale(4.48)"/><use href="#s" transform="translate(565.9 188.9) scale(4.56)"/><use href="#s" transform="translate(589.0 189.9) scale(3.88)"/><use href="#s" transform="translate(609.4 190.5) scale(3.74)"/><use href="#s" transform="translate(628.8 191.1) scale(3.93)"/><use href="#s" transform="translate(651.3 189.8) scale(3.26)"/><use href="#s" transform="translate(673.2 190.8) scale(4.03)"/><use href="#s" transform="translate(692.3 190.5) scale(4.08)"/><use href="#s" transform="translate(714.3 189.1) scale(3.83)"/><use href="#s" transform="translate(735.5 188.8) scale(3.69)"/><use href="#s" transform="translate(755.4 190.5) scale(3.75)"/><use href="#s" transform="translate(776.1 189.5) scale(4.62)"/><use href="#s" transform="translate(798.1 190.4) scale(4.04)"/><use href="#s" transform="translate(820.1 189.3) scale(3.15)"/><use href="#s" transform="translate(840.9 189.7) scale(2.96)"/><use href="#s" transform="translate(860.0 189.9) scale(1.42)"/><use href="#s" transform="translate(346.6 172.4) scale(1.66)"/><use href="#s" transform="translate(368.3 171.3) scale(3.41)"/><use href="#s" transform="translate(389.7 170.5) scale(3.63)"/><use href="#s" transform="translate(408.6 171.6) scale(4.55)"/><use href="#s" transform="translate(431.1 171.6) scale(4.07)"/><use href="#s" transform="translate(451.4 171.8) scale(4.76)"/><use href="#s" transform="translate(471.5 172.4) scale(4.91)"/><use href="#s" transform="translate(493.5 172.7) scale(5.16)"/><use href="#s" transform="translate(515.4 172.4) scale(3.97)"/><use href="#s" transform="translate(535.5 171.9) scale(3.69)"/><use href="#s" transform="translate(556.2 171.1) scale(3.29)"/><use href="#s" transform="translate(578.4 172.9) scale(3.21)"/><use href="#s" transform="translate(598.2 172.8) scale(2.64)"/><use href="#s" transform="translate(620.6 171.9) scale(2.90)"/><use href="#s" transform="translate(640.4 171.5) scale(2.50)"/><use href="#s" transform="translate(661.6 170.6) scale(2.35)"/><use href="#s" transform="translate(683.1 170.7) scale(3.05)"/><use href="#s" transform="translate(703.8 171.3) scale(3.23)"/><use href="#s" transform="translate(724.5 171.1) scale(3.16)"/><use href="#s" transform="translate(746.5 171.3) scale(3.61)"/><use href="#s" transform="translate(767.6 172.1) scale(3.73)"/><use href="#s" transform="translate(786.7 172.1) scale(3.45)"/><use href="#s" transform="translate(809.1 170.6) scale(2.75)"/><use href="#s" transform="translate(829.9 170.5) scale(2.07)"/><use href="#s" transform="translate(378.5 153.2) scale(2.58)"/><use href="#s" transform="translate(397.8 153.6) scale(3.17)"/><use href="#s" transform="translate(419.6 154.4) scale(3.83)"/><use href="#s" transform="translate(442.2 154.0) scale(3.67)"/><use href="#s" transform="translate(463.1 152.8) scale(3.45)"/><use href="#s" transform="translate(483.8 154.3) scale(4.16)"/><use href="#s" transform="translate(504.7 154.5) scale(3.64)"/><use href="#s" transform="translate(525.3 153.6) scale(3.40)"/><use href="#s" transform="translate(544.7 153.3) scale(2.66)"/><use href="#s" transform="translate(565.9 152.8) scale(2.17)"/><use href="#s" transform="translate(588.3 154.3) scale(2.16)"/><use href="#s" transform="translate(609.2 154.0) scale(1.66)"/><use href="#s" transform="translate(629.6 153.5) scale(1.22)"/><use href="#s" transform="translate(651.2 152.0) scale(1.17)"/><use href="#s" transform="translate(672.2 152.3) scale(1.72)"/><use href="#s" transform="translate(694.0 152.9) scale(1.87)"/><use href="#s" transform="translate(714.1 153.4) scale(2.08)"/><use href="#s" transform="translate(736.0 154.2) scale(2.09)"/><use href="#s" transform="translate(755.8 154.3) scale(2.06)"/><use href="#s" transform="translate(777.9 154.0) scale(2.26)"/><use href="#s" transform="translate(798.2 154.6) scale(2.08)"/><use href="#s" transform="translate(818.2 152.7) scale(1.22)"/><use href="#s" transform="translate(388.6 136.0) scale(2.17)"/><use href="#s" transform="translate(408.8 135.9) scale(2.85)"/><use href="#s" transform="translate(430.6 134.4) scale(2.88)"/><use href="#s" transform="translate(451.4 136.1) scale(2.93)"/><use href="#s" transform="translate(471.3 133.8) scale(3.01)"/><use href="#s" transform="translate(494.7 134.4) scale(2.82)"/><use href="#s" transform="translate(514.4 134.1) scale(2.55)"/><use href="#s" transform="translate(535.4 133.9) scale(2.42)"/><use href="#s" transform="translate(556.6 136.3) scale(1.45)"/><use href="#s" transform="translate(765.8 135.7) scale(1.17)"/><use href="#s" transform="translate(400.0 116.1) scale(1.33)"/><use href="#s" transform="translate(419.0 116.2) scale(1.73)"/><use href="#s" transform="translate(440.6 117.4) scale(2.28)"/><use href="#s" transform="translate(461.5 117.9) scale(2.51)"/><use href="#s" transform="translate(483.8 118.0) scale(2.12)"/><use href="#s" transform="translate(504.7 115.8) scale(2.06)"/><use href="#s" transform="translate(523.9 116.6) scale(1.21)"/><use href="#s" transform="translate(431.5 99.6) scale(1.16)"/><use href="#s" transform="translate(451.9 97.8) scale(1.31)"/><use href="#s" transform="translate(473.6 99.5) scale(1.44)"/></svg>